<?xml version="1.0" standalone="no"?>
<!DOCTYPE svg PUBLIC "-//W3C//DTD SVG 20010904//EN"
 "http://www.w3.org/TR/2001/REC-SVG-20010904/DTD/svg10.dtd">
<svg version="1.0" xmlns="http://www.w3.org/2000/svg"
 width="700.000000pt" height="603.000000pt" viewBox="0 0 700.000000 603.000000"
 preserveAspectRatio="xMidYMid meet">

<g transform="translate(0.000000,603.000000) scale(0.100000,-0.100000)"
fill="#000000" stroke="none">
<path d="M2805 5200 c-440 -32 -662 -84 -814 -191 -79 -55 -134 -119 -218
-254 -161 -257 -266 -508 -355 -848 l-23 -89 -52 80 c-59 90 -140 169 -210
203 -40 20 -67 25 -160 27 -132 4 -170 -9 -211 -71 -26 -39 -27 -45 -27 -191
0 -140 2 -154 23 -188 13 -21 40 -45 66 -57 39 -19 60 -21 279 -21 130 0 237
-3 237 -6 0 -4 -37 -46 -83 -93 -178 -185 -286 -400 -322 -638 -23 -152 -18
-344 21 -733 27 -283 68 -449 146 -594 43 -80 56 -90 158 -136 12 -6 16 -41
20 -196 5 -176 7 -192 29 -227 12 -21 42 -48 65 -60 39 -21 53 -22 266 -22
213 0 227 1 266 22 23 12 53 39 65 60 22 35 24 51 27 186 l4 148 41 -5 c240
-31 1444 -65 1779 -51 l175 7 5 67 c3 40 14 83 27 108 25 50 26 63 5 63 -27 0
-117 49 -153 83 -88 84 -111 158 -111 362 0 163 12 227 54 294 36 56 106 115
169 141 44 18 56 28 51 39 -42 100 -46 117 -42 201 6 119 33 167 170 306 145
148 186 169 323 169 85 0 107 -4 148 -24 26 -13 49 -22 51 -20 1 2 10 25 20
51 36 99 127 183 230 213 67 20 334 21 400 1 108 -33 208 -131 236 -231 7 -25
16 -44 19 -42 81 44 109 52 197 52 l92 0 -25 55 c-57 129 -169 288 -271 383
-29 26 -52 52 -52 57 0 6 91 10 234 10 243 0 272 4 314 43 51 47 57 72 57 227
0 163 -10 194 -76 238 -32 22 -42 23 -154 20 -102 -3 -127 -7 -169 -27 -69
-34 -165 -128 -210 -205 -22 -37 -42 -69 -46 -71 -4 -2 -20 44 -35 103 -85
331 -205 612 -371 865 -177 268 -326 337 -854 394 -168 18 -1220 27 -1425 13z
m1265 -340 c368 -34 644 -94 708 -153 54 -50 186 -313 271 -538 54 -144 131
-407 131 -445 0 -22 -3 -24 -37 -19 -113 15 -726 51 -1118 65 -666 23 -1541 2
-2183 -54 -81 -7 -148 -12 -149 -12 -5 4 64 249 103 365 77 228 242 575 302
636 67 67 420 136 852 165 166 11 974 4 1120 -10z m-2205 -1711 c254 -47 392
-316 280 -546 -37 -74 -103 -139 -183 -176 -61 -29 -76 -32 -162 -32 -82 0
-103 4 -152 27 -79 37 -152 108 -190 185 -109 223 28 494 276 543 58 11 66 11
131 -1z"/>
<path d="M5005 3028 c-22 -20 -28 -40 -45 -137 -11 -62 -21 -115 -22 -116 -2
-1 -37 -14 -78 -29 -41 -15 -90 -35 -109 -45 l-35 -18 -90 65 c-127 92 -131
91 -251 -28 -68 -67 -95 -102 -95 -119 0 -13 31 -69 69 -125 l69 -102 -24 -39
c-13 -22 -33 -72 -46 -111 l-22 -72 -110 -18 c-155 -25 -156 -25 -156 -193 0
-168 4 -174 140 -196 142 -23 137 -21 144 -58 3 -18 22 -66 41 -107 20 -40 34
-79 31 -85 -2 -7 -32 -50 -65 -97 -64 -89 -70 -111 -47 -156 17 -32 141 -155
174 -171 32 -17 54 -8 158 65 l91 63 58 -30 c33 -16 82 -36 111 -45 l51 -15
18 -111 c26 -157 26 -158 192 -158 173 0 177 3 203 165 16 104 14 100 98 130
42 15 91 36 109 46 l32 20 83 -60 c104 -75 125 -83 163 -66 38 16 195 177 195
199 0 24 -14 49 -81 143 l-59 81 30 56 c16 31 37 81 46 111 19 60 14 57 124
75 164 28 170 35 170 195 0 106 -10 146 -43 173 -8 7 -63 21 -122 32 -60 11
-109 21 -111 22 -1 2 -12 32 -24 68 -12 36 -32 85 -46 109 l-24 44 61 85 c74
104 81 119 64 157 -20 47 -178 195 -207 195 -14 0 -65 -29 -122 -69 l-97 -69
-42 23 c-23 13 -71 33 -107 46 -36 12 -68 25 -72 28 -4 3 -16 55 -27 116 -27
152 -31 155 -196 155 -114 0 -126 -2 -150 -22z m318 -573 c89 -30 154 -73 221
-146 93 -100 138 -218 138 -359 0 -153 -48 -267 -156 -376 -109 -108 -223
-156 -376 -156 -141 0 -259 45 -359 138 -118 109 -173 235 -173 394 0 145 44
260 141 364 147 156 361 210 564 141z"/>
</g>
</svg>
